<?xml version="1.0" encoding="UTF-8" standalone="no"?>
<!-- Created with Inkscape (http://www.inkscape.org/) -->

<svg
   width="51.91901mm"
   height="60.841816mm"
   viewBox="0 0 51.91901 60.841816"
   version="1.1"
   id="svg1"
   xmlns="http://www.w3.org/2000/svg"
   xmlns:svg="http://www.w3.org/2000/svg">
  <defs
     id="defs1" />
  <g
     id="layer1"
     transform="translate(-75.406242,-93.662496)">
    <g
       id="g2414"
       transform="matrix(0.26458333,0,0,0.26458333,-181.04592,-6.9631)">
      <path
         id="path41"
         d="m 263.848,389.266 c 0,-2.801 -2.274,-5.078 -5.075,-5.078 h -17.621 c -2.804,0 -5.078,2.277 -5.078,5.078 v 17.621 c 0,2.801 2.274,5.074 5.078,5.074 h 17.621 c 2.801,0 5.075,-2.273 5.075,-5.074 z"
         style="fill:#f5871f;fill-opacity:1;fill-rule:nonzero;stroke:none"
         transform="matrix(1.3333333,0,0,-1.3333333,813.70003,1122.5212)" />
      <path
         id="path42"
         d="m 118.352,393.645 c 0,-0.039 -0.016,-0.078 -0.043,-0.11 -0.028,-0.039 -0.075,-0.062 -0.137,-0.085 -0.063,-0.02 -0.149,-0.036 -0.25,-0.051 -0.109,-0.012 -0.242,-0.02 -0.41,-0.02 -0.16,0 -0.293,0.008 -0.403,0.02 -0.105,0.015 -0.191,0.031 -0.254,0.051 -0.066,0.023 -0.109,0.046 -0.136,0.085 -0.028,0.032 -0.043,0.071 -0.043,0.11 v 7.754 c 0,0.039 0.015,0.082 0.043,0.113 0.027,0.035 0.074,0.063 0.136,0.078 0.071,0.024 0.157,0.043 0.258,0.055 0.11,0.015 0.239,0.019 0.399,0.019 0.168,0 0.301,-0.004 0.41,-0.019 0.101,-0.012 0.187,-0.031 0.25,-0.055 0.062,-0.015 0.109,-0.043 0.137,-0.078 0.027,-0.031 0.043,-0.074 0.043,-0.113 z"
         style="fill:#f5871f;fill-opacity:1;fill-rule:nonzero;stroke:none"
         transform="matrix(1.3333333,0,0,-1.3333333,813.70003,1122.5212)" />
      <path
         id="path43"
         d="m 127.23,394 c 0,-0.097 -0.015,-0.183 -0.046,-0.261 -0.036,-0.075 -0.082,-0.137 -0.137,-0.188 -0.059,-0.047 -0.129,-0.09 -0.207,-0.113 -0.074,-0.02 -0.156,-0.035 -0.238,-0.035 h -0.707 c -0.149,0 -0.274,0.019 -0.383,0.047 -0.11,0.031 -0.207,0.085 -0.301,0.16 -0.09,0.082 -0.176,0.183 -0.262,0.32 -0.086,0.133 -0.179,0.305 -0.285,0.516 l -2.043,3.836 c -0.117,0.23 -0.238,0.476 -0.359,0.742 -0.121,0.261 -0.235,0.519 -0.332,0.765 h -0.012 c 0.016,-0.3 0.027,-0.605 0.035,-0.906 0.012,-0.305 0.016,-0.617 0.016,-0.937 v -4.293 c 0,-0.043 -0.012,-0.078 -0.035,-0.114 -0.024,-0.031 -0.063,-0.062 -0.121,-0.086 -0.055,-0.023 -0.133,-0.039 -0.231,-0.054 -0.098,-0.012 -0.223,-0.02 -0.375,-0.02 -0.148,0 -0.273,0.008 -0.367,0.02 -0.098,0.015 -0.176,0.031 -0.227,0.054 -0.058,0.024 -0.097,0.055 -0.117,0.086 -0.019,0.036 -0.031,0.071 -0.031,0.114 v 7.379 c 0,0.195 0.058,0.343 0.176,0.441 0.113,0.102 0.257,0.148 0.425,0.148 h 0.895 c 0.16,0 0.297,-0.011 0.406,-0.039 0.11,-0.027 0.207,-0.07 0.297,-0.132 0.086,-0.067 0.168,-0.157 0.242,-0.266 0.078,-0.113 0.153,-0.25 0.235,-0.414 l 1.597,-3 c 0.094,-0.184 0.184,-0.36 0.278,-0.535 0.093,-0.176 0.175,-0.356 0.261,-0.532 0.086,-0.171 0.168,-0.343 0.246,-0.515 0.082,-0.164 0.161,-0.336 0.239,-0.508 h 0.008 c -0.016,0.297 -0.024,0.605 -0.032,0.93 -0.008,0.32 -0.008,0.625 -0.008,0.918 v 3.847 c 0,0.047 0.012,0.082 0.04,0.117 0.023,0.032 0.066,0.063 0.125,0.09 0.058,0.024 0.136,0.039 0.234,0.055 0.098,0.008 0.223,0.012 0.375,0.012 0.144,0 0.262,-0.004 0.359,-0.012 0.098,-0.016 0.172,-0.031 0.227,-0.055 0.051,-0.027 0.09,-0.058 0.109,-0.09 0.024,-0.035 0.031,-0.07 0.031,-0.117 z"
         style="fill:#f5871f;fill-opacity:1;fill-rule:nonzero;stroke:none"
         transform="matrix(1.3333333,0,0,-1.3333333,813.70003,1122.5212)" />
      <path
         id="path44"
         d="m 133.43,393.707 c -0.024,-0.07 -0.051,-0.129 -0.082,-0.172 -0.035,-0.046 -0.09,-0.078 -0.164,-0.101 -0.079,-0.024 -0.18,-0.039 -0.313,-0.043 -0.133,-0.012 -0.305,-0.012 -0.516,-0.012 h -0.433 c -0.121,0.008 -0.223,0.012 -0.305,0.02 -0.086,0.011 -0.156,0.023 -0.207,0.035 -0.055,0.019 -0.101,0.043 -0.137,0.07 -0.035,0.02 -0.062,0.051 -0.082,0.09 -0.015,0.035 -0.035,0.078 -0.05,0.133 l -2.446,7.277 c -0.047,0.153 -0.078,0.274 -0.09,0.363 -0.011,0.086 0.012,0.153 0.063,0.196 0.055,0.047 0.145,0.074 0.27,0.082 0.128,0.015 0.304,0.019 0.535,0.019 0.195,0 0.347,-0.004 0.453,-0.015 0.113,-0.008 0.195,-0.024 0.258,-0.043 0.058,-0.02 0.097,-0.055 0.121,-0.094 0.023,-0.043 0.047,-0.094 0.066,-0.16 l 2,-6.328 h 0.004 l 1.961,6.297 c 0.016,0.074 0.039,0.132 0.062,0.175 0.028,0.043 0.071,0.079 0.133,0.106 0.059,0.023 0.149,0.039 0.258,0.047 0.117,0.011 0.274,0.015 0.473,0.015 0.195,0 0.347,-0.004 0.453,-0.019 0.109,-0.012 0.18,-0.043 0.223,-0.094 0.039,-0.051 0.05,-0.117 0.039,-0.207 -0.016,-0.086 -0.051,-0.207 -0.098,-0.355 l -2.449,-7.278 z"
         style="fill:#f5871f;fill-opacity:1;fill-rule:nonzero;stroke:none"
         transform="matrix(1.3333333,0,0,-1.3333333,813.70003,1122.5212)" />
      <path
         id="path45"
         d="m 144.48,397.617 c 0,-0.683 -0.085,-1.289 -0.253,-1.828 -0.172,-0.535 -0.422,-0.992 -0.758,-1.367 -0.332,-0.371 -0.746,-0.66 -1.239,-0.855 -0.492,-0.196 -1.062,-0.293 -1.707,-0.293 -0.64,0 -1.195,0.082 -1.671,0.25 -0.477,0.168 -0.872,0.418 -1.192,0.765 -0.316,0.34 -0.555,0.778 -0.715,1.305 -0.156,0.527 -0.238,1.156 -0.238,1.879 0,0.66 0.086,1.258 0.258,1.789 0.168,0.531 0.418,0.98 0.754,1.355 0.332,0.372 0.746,0.657 1.238,0.856 0.492,0.199 1.066,0.297 1.719,0.297 0.617,0 1.168,-0.078 1.64,-0.246 0.477,-0.168 0.875,-0.418 1.196,-0.762 0.32,-0.344 0.558,-0.773 0.722,-1.297 0.164,-0.523 0.246,-1.14 0.246,-1.848 z m -1.753,-0.089 c 0,0.429 -0.032,0.824 -0.098,1.175 -0.066,0.356 -0.184,0.657 -0.348,0.907 -0.164,0.254 -0.379,0.445 -0.648,0.586 -0.27,0.136 -0.61,0.207 -1.016,0.207 -0.41,0 -0.754,-0.078 -1.031,-0.235 -0.273,-0.152 -0.492,-0.359 -0.664,-0.617 -0.168,-0.258 -0.285,-0.559 -0.359,-0.902 -0.067,-0.344 -0.102,-0.711 -0.102,-1.094 0,-0.449 0.031,-0.855 0.102,-1.211 0.066,-0.359 0.179,-0.664 0.343,-0.914 0.157,-0.258 0.375,-0.449 0.645,-0.582 0.269,-0.133 0.613,-0.199 1.019,-0.199 0.41,0 0.754,0.074 1.032,0.226 0.273,0.153 0.496,0.36 0.664,0.621 0.168,0.266 0.289,0.571 0.359,0.918 0.066,0.348 0.102,0.723 0.102,1.114 z"
         style="fill:#f5871f;fill-opacity:1;fill-rule:nonzero;stroke:none"
         transform="matrix(1.3333333,0,0,-1.3333333,813.70003,1122.5212)" />
      <path
         id="path46"
         d="m 147.879,393.645 c 0,-0.039 -0.016,-0.078 -0.039,-0.11 -0.027,-0.039 -0.074,-0.062 -0.141,-0.085 -0.062,-0.02 -0.144,-0.036 -0.25,-0.051 -0.105,-0.012 -0.242,-0.02 -0.406,-0.02 -0.16,0 -0.297,0.008 -0.402,0.02 -0.11,0.015 -0.196,0.031 -0.258,0.051 -0.063,0.023 -0.11,0.046 -0.137,0.085 -0.027,0.032 -0.043,0.071 -0.043,0.11 v 7.754 c 0,0.039 0.016,0.082 0.043,0.113 0.027,0.035 0.074,0.063 0.141,0.078 0.062,0.024 0.148,0.043 0.258,0.055 0.101,0.015 0.238,0.019 0.398,0.019 0.164,0 0.301,-0.004 0.406,-0.019 0.106,-0.012 0.188,-0.031 0.25,-0.055 0.067,-0.015 0.114,-0.043 0.141,-0.078 0.023,-0.031 0.039,-0.074 0.039,-0.113 z"
         style="fill:#f5871f;fill-opacity:1;fill-rule:nonzero;stroke:none"
         transform="matrix(1.3333333,0,0,-1.3333333,813.70003,1122.5212)" />
      <path
         id="path47"
         d="m 155.668,394.66 c 0,-0.105 0,-0.195 -0.012,-0.269 -0.004,-0.07 -0.011,-0.137 -0.027,-0.188 -0.012,-0.054 -0.031,-0.097 -0.047,-0.14 -0.023,-0.035 -0.059,-0.078 -0.105,-0.129 -0.043,-0.043 -0.133,-0.109 -0.27,-0.184 -0.133,-0.078 -0.297,-0.152 -0.488,-0.218 -0.192,-0.075 -0.414,-0.133 -0.66,-0.176 -0.246,-0.047 -0.512,-0.071 -0.801,-0.071 -0.563,0 -1.067,0.086 -1.52,0.258 -0.457,0.176 -0.84,0.434 -1.156,0.778 -0.32,0.343 -0.562,0.777 -0.73,1.293 -0.168,0.515 -0.254,1.113 -0.254,1.8 0,0.696 0.093,1.317 0.281,1.86 0.184,0.539 0.445,0.992 0.781,1.359 0.332,0.371 0.735,0.649 1.199,0.84 0.469,0.191 0.981,0.285 1.543,0.285 0.231,0 0.45,-0.019 0.661,-0.058 0.21,-0.036 0.41,-0.086 0.589,-0.149 0.18,-0.059 0.34,-0.129 0.485,-0.211 0.144,-0.082 0.242,-0.148 0.301,-0.207 0.054,-0.058 0.093,-0.101 0.117,-0.144 0.023,-0.036 0.035,-0.086 0.05,-0.141 0.012,-0.059 0.02,-0.133 0.032,-0.215 0.004,-0.078 0.008,-0.176 0.008,-0.293 0,-0.129 -0.004,-0.234 -0.016,-0.324 -0.008,-0.09 -0.02,-0.164 -0.043,-0.215 -0.023,-0.055 -0.047,-0.094 -0.078,-0.121 -0.031,-0.027 -0.063,-0.039 -0.102,-0.039 -0.062,0 -0.144,0.039 -0.238,0.109 -0.098,0.078 -0.227,0.157 -0.379,0.246 -0.156,0.094 -0.34,0.176 -0.551,0.25 -0.215,0.075 -0.468,0.11 -0.761,0.11 -0.329,0 -0.618,-0.067 -0.875,-0.196 -0.254,-0.136 -0.473,-0.324 -0.653,-0.57 -0.179,-0.254 -0.316,-0.551 -0.41,-0.898 -0.094,-0.352 -0.141,-0.746 -0.141,-1.188 0,-0.484 0.051,-0.902 0.149,-1.254 0.101,-0.351 0.242,-0.644 0.426,-0.871 0.187,-0.226 0.406,-0.398 0.668,-0.512 0.257,-0.109 0.55,-0.167 0.879,-0.167 0.293,0 0.546,0.035 0.761,0.105 0.219,0.066 0.407,0.145 0.559,0.23 0.152,0.086 0.281,0.161 0.383,0.227 0.097,0.07 0.175,0.105 0.226,0.105 0.047,0 0.078,-0.007 0.106,-0.027 0.027,-0.019 0.043,-0.051 0.062,-0.098 0.02,-0.054 0.031,-0.128 0.035,-0.214 0.008,-0.09 0.016,-0.215 0.016,-0.368 z"
         style="fill:#f5871f;fill-opacity:1;fill-rule:nonzero;stroke:none"
         transform="matrix(1.3333333,0,0,-1.3333333,813.70003,1122.5212)" />
      <path
         id="path48"
         d="m 162.059,394.075 c 0,-0.129 -0.012,-0.227 -0.02,-0.313 -0.008,-0.078 -0.027,-0.148 -0.047,-0.195 -0.019,-0.055 -0.047,-0.09 -0.078,-0.114 -0.031,-0.023 -0.066,-0.035 -0.109,-0.035 h -4.117 c -0.141,0 -0.262,0.039 -0.356,0.125 -0.094,0.082 -0.144,0.215 -0.144,0.399 v 7.156 c 0,0.187 0.05,0.324 0.144,0.402 0.094,0.082 0.215,0.121 0.356,0.121 h 4.097 c 0.035,0 0.07,-0.007 0.098,-0.031 0.031,-0.015 0.058,-0.058 0.074,-0.105 0.023,-0.055 0.043,-0.121 0.051,-0.203 0.008,-0.086 0.015,-0.188 0.015,-0.317 0,-0.121 -0.007,-0.219 -0.015,-0.301 -0.008,-0.082 -0.028,-0.152 -0.051,-0.199 -0.016,-0.051 -0.043,-0.086 -0.074,-0.113 -0.028,-0.024 -0.063,-0.031 -0.098,-0.031 h -2.933 v -2.008 h 2.484 c 0.035,0 0.07,-0.008 0.102,-0.031 0.031,-0.028 0.058,-0.063 0.082,-0.11 0.015,-0.047 0.035,-0.117 0.043,-0.195 0.011,-0.086 0.019,-0.184 0.019,-0.301 0,-0.129 -0.008,-0.226 -0.019,-0.305 -0.008,-0.082 -0.028,-0.144 -0.043,-0.195 -0.024,-0.051 -0.051,-0.086 -0.082,-0.101 -0.032,-0.024 -0.067,-0.032 -0.102,-0.032 h -2.484 v -2.32 h 2.953 c 0.043,0 0.078,-0.008 0.109,-0.035 0.031,-0.024 0.059,-0.059 0.078,-0.11 0.02,-0.05 0.039,-0.113 0.047,-0.199 0.008,-0.082 0.02,-0.183 0.02,-0.304 z"
         style="fill:#f5871f;fill-opacity:1;fill-rule:nonzero;stroke:none"
         transform="matrix(1.3333333,0,0,-1.3333333,813.70003,1122.5212)" />
      <path
         id="path49"
         d="m 263.848,554.364 c 0,1.261 -1.024,2.289 -2.285,2.289 H 118.969 c -1.262,0 -2.293,-1.028 -2.293,-2.289 v -142.59 c 0,-1.27 1.031,-2.293 2.293,-2.293 h 105.926 c 1.078,0.011 1.46,0.535 1.46,1.215 0,0.683 -0.382,1.257 -1.46,1.265 H 119.152 V 554.18 H 261.371 V 419.227 h 0.027 c -0.015,-0.106 -0.027,-0.203 -0.027,-0.309 -0.004,-1.09 0.504,-1.672 1.184,-1.676 0.679,-0.007 1.285,0.571 1.293,1.661 0,0.113 -0.008,0.214 -0.02,0.324 h 0.02 z"
         style="fill:#f5871f;fill-opacity:1;fill-rule:nonzero;stroke:none"
         transform="matrix(1.3333333,0,0,-1.3333333,813.70003,1122.5212)" />
      <path
         id="path50"
         d="m 255.25,390.364 -10.352,0.046 0.067,15.227 6.48,-0.023 -0.015,-4.024 3.867,-0.019 z m 0,12.632 -2.359,0.008 0.011,2.305 z m 1.457,-12.304 0.047,11.047 c 0,0 0.059,0.773 -0.305,1.57 -0.355,0.797 -0.73,1.211 -0.73,1.211 l -1.789,1.773 c 0,0 -0.379,0.403 -0.805,0.559 -0.418,0.152 -0.504,0.176 -1.336,0.18 -2.211,0.007 -6.242,0.027 -6.242,0.027 0,0 -0.926,0.051 -1.477,-0.426 -0.543,-0.476 -0.562,-1.375 -0.562,-1.375 l -0.063,-14.754 c 0,0 -0.027,-0.711 0.348,-1.133 0.355,-0.402 1.152,-0.386 1.152,-0.386 l 9.879,-0.039 c 0,0 1.059,-0.129 1.559,0.414 0.387,0.425 0.324,1.332 0.324,1.332 z"
         style="fill:#ffffff;fill-opacity:1;fill-rule:nonzero;stroke:none"
         transform="matrix(1.3333333,0,0,-1.3333333,813.70003,1122.5212)" />
      <path
         id="path51"
         d="m 246.008,402.344 4.371,-0.019 -0.004,-0.723 -4.371,0.019 z"
         style="fill:#ffffff;fill-opacity:1;fill-rule:nonzero;stroke:none"
         transform="matrix(1.3333333,0,0,-1.3333333,813.70003,1122.5212)" />
      <path
         id="path52"
         d="m 246,399.653 8.258,-0.036 -0.004,-0.73 -8.258,0.035 z"
         style="fill:#ffffff;fill-opacity:1;fill-rule:nonzero;stroke:none"
         transform="matrix(1.3333333,0,0,-1.3333333,813.70003,1122.5212)" />
      <path
         id="path53"
         d="m 245.988,396.961 8.262,-0.035 -0.004,-0.73 -8.262,0.031 z"
         style="fill:#ffffff;fill-opacity:1;fill-rule:nonzero;stroke:none"
         transform="matrix(1.3333333,0,0,-1.3333333,813.70003,1122.5212)" />
      <path
         id="path54"
         d="m 245.977,394.262 8.257,-0.031 v -0.727 l -8.261,0.035 z"
         style="fill:#ffffff;fill-opacity:1;fill-rule:nonzero;stroke:none"
         transform="matrix(1.3333333,0,0,-1.3333333,813.70003,1122.5212)" />
      <path
         id="path55"
         d="m 174.43,396.25 c 0,-0.504 -0.051,-0.957 -0.16,-1.355 -0.114,-0.403 -0.27,-0.746 -0.477,-1.028 -0.207,-0.285 -0.461,-0.503 -0.762,-0.652 -0.308,-0.152 -0.648,-0.23 -1.035,-0.23 -0.187,0 -0.367,0.019 -0.535,0.054 -0.16,0.036 -0.316,0.094 -0.469,0.176 -0.148,0.078 -0.297,0.18 -0.441,0.301 -0.149,0.125 -0.297,0.273 -0.449,0.445 v -0.617 c 0,-0.043 -0.008,-0.086 -0.036,-0.117 -0.023,-0.031 -0.058,-0.059 -0.113,-0.078 -0.055,-0.02 -0.125,-0.035 -0.211,-0.043 -0.09,-0.008 -0.199,-0.012 -0.324,-0.012 -0.133,0 -0.242,0.004 -0.328,0.012 -0.086,0.008 -0.156,0.023 -0.211,0.043 -0.047,0.023 -0.09,0.047 -0.106,0.078 -0.023,0.031 -0.031,0.074 -0.031,0.117 v 8.34 c 0,0.047 0.008,0.082 0.035,0.117 0.028,0.031 0.067,0.059 0.129,0.086 0.063,0.023 0.145,0.043 0.242,0.055 0.106,0.008 0.235,0.019 0.387,0.019 0.156,0 0.289,-0.011 0.391,-0.019 0.097,-0.016 0.179,-0.032 0.242,-0.055 0.062,-0.027 0.105,-0.055 0.133,-0.086 0.023,-0.035 0.035,-0.07 0.035,-0.117 v -3.125 c 0.144,0.144 0.285,0.266 0.43,0.367 0.144,0.102 0.289,0.188 0.433,0.254 0.141,0.062 0.289,0.113 0.442,0.141 0.152,0.031 0.316,0.043 0.48,0.043 0.422,0 0.777,-0.082 1.07,-0.247 0.293,-0.171 0.528,-0.394 0.711,-0.679 0.184,-0.281 0.317,-0.613 0.403,-0.992 0.086,-0.375 0.125,-0.778 0.125,-1.196 z m -1.653,-0.113 c 0,0.238 -0.015,0.473 -0.054,0.699 -0.035,0.223 -0.098,0.422 -0.188,0.598 -0.09,0.168 -0.203,0.308 -0.344,0.41 -0.14,0.106 -0.32,0.16 -0.535,0.16 -0.109,0 -0.211,-0.019 -0.312,-0.047 -0.102,-0.031 -0.203,-0.082 -0.313,-0.152 -0.109,-0.07 -0.218,-0.164 -0.332,-0.277 -0.117,-0.118 -0.234,-0.258 -0.363,-0.426 v -1.879 c 0.223,-0.289 0.437,-0.508 0.641,-0.656 0.207,-0.149 0.421,-0.223 0.648,-0.223 0.207,0 0.379,0.051 0.523,0.156 0.145,0.106 0.266,0.242 0.36,0.414 0.094,0.168 0.164,0.364 0.207,0.578 0.043,0.215 0.062,0.43 0.062,0.649 z"
         style="fill:#b2b4b9;fill-opacity:1;fill-rule:nonzero;stroke:none"
         transform="matrix(1.3333333,0,0,-1.3333333,813.70003,1122.5212)" />
      <path
         id="path56"
         d="m 179.242,393.129 -0.683,-2.004 c -0.039,-0.101 -0.145,-0.179 -0.313,-0.226 -0.168,-0.047 -0.414,-0.071 -0.742,-0.071 -0.168,0 -0.305,0.008 -0.406,0.024 -0.102,0.015 -0.18,0.039 -0.227,0.074 -0.051,0.031 -0.078,0.074 -0.082,0.125 -0.004,0.051 0.004,0.113 0.035,0.184 l 0.754,1.894 c -0.051,0.028 -0.101,0.071 -0.148,0.117 -0.043,0.055 -0.075,0.114 -0.098,0.172 l -1.945,5.199 c -0.059,0.149 -0.086,0.262 -0.086,0.336 0,0.082 0.027,0.141 0.078,0.188 0.051,0.043 0.133,0.074 0.254,0.094 0.125,0.011 0.285,0.023 0.484,0.023 0.18,0 0.321,0 0.43,-0.012 0.101,-0.004 0.187,-0.023 0.246,-0.043 0.059,-0.027 0.105,-0.066 0.137,-0.121 0.027,-0.05 0.058,-0.125 0.082,-0.226 l 1.336,-3.785 h 0.019 l 1.219,3.863 c 0.023,0.109 0.059,0.183 0.094,0.219 0.043,0.035 0.109,0.062 0.203,0.082 0.094,0.011 0.258,0.023 0.492,0.023 0.176,0 0.332,-0.012 0.453,-0.023 0.117,-0.02 0.207,-0.051 0.262,-0.094 0.058,-0.051 0.086,-0.113 0.086,-0.191 0,-0.079 -0.016,-0.168 -0.047,-0.278 z"
         style="fill:#b2b4b9;fill-opacity:1;fill-rule:nonzero;stroke:none"
         transform="matrix(1.3333333,0,0,-1.3333333,813.70003,1122.5212)" />
      <path
         id="path57"
         d="m 189.293,394.946 c 0,-0.321 -0.059,-0.61 -0.18,-0.852 -0.121,-0.246 -0.293,-0.449 -0.511,-0.613 -0.219,-0.168 -0.481,-0.289 -0.782,-0.375 -0.297,-0.078 -0.625,-0.121 -0.976,-0.121 -0.211,0 -0.41,0.015 -0.606,0.047 -0.191,0.031 -0.363,0.07 -0.515,0.121 -0.153,0.05 -0.278,0.097 -0.383,0.148 -0.098,0.055 -0.176,0.098 -0.219,0.145 -0.047,0.043 -0.082,0.117 -0.109,0.211 -0.028,0.093 -0.039,0.23 -0.039,0.421 0,0.122 0.004,0.219 0.011,0.289 0.012,0.079 0.024,0.137 0.043,0.18 0.016,0.047 0.036,0.074 0.063,0.09 0.027,0.016 0.058,0.023 0.094,0.023 0.043,0 0.117,-0.027 0.207,-0.078 0.089,-0.054 0.203,-0.113 0.336,-0.175 0.14,-0.063 0.296,-0.122 0.476,-0.176 0.18,-0.059 0.383,-0.086 0.61,-0.086 0.144,0 0.269,0.015 0.382,0.047 0.114,0.031 0.211,0.07 0.293,0.125 0.086,0.058 0.149,0.125 0.188,0.211 0.039,0.086 0.062,0.179 0.062,0.293 0,0.125 -0.039,0.23 -0.117,0.324 -0.074,0.09 -0.18,0.168 -0.308,0.238 -0.129,0.07 -0.274,0.133 -0.442,0.192 -0.16,0.058 -0.328,0.125 -0.496,0.195 -0.172,0.074 -0.344,0.152 -0.504,0.246 -0.164,0.09 -0.305,0.207 -0.437,0.344 -0.129,0.132 -0.231,0.297 -0.309,0.488 -0.082,0.187 -0.117,0.418 -0.117,0.684 0,0.269 0.051,0.519 0.156,0.746 0.106,0.226 0.258,0.422 0.453,0.578 0.203,0.164 0.446,0.289 0.731,0.379 0.285,0.086 0.605,0.129 0.961,0.129 0.179,0 0.347,-0.008 0.515,-0.036 0.168,-0.027 0.321,-0.058 0.453,-0.093 0.137,-0.043 0.246,-0.082 0.344,-0.125 0.094,-0.047 0.16,-0.082 0.199,-0.114 0.043,-0.031 0.071,-0.062 0.086,-0.093 0.016,-0.039 0.028,-0.075 0.035,-0.118 0.012,-0.046 0.02,-0.101 0.024,-0.168 0.008,-0.062 0.008,-0.144 0.008,-0.242 0,-0.113 0,-0.207 -0.008,-0.277 -0.004,-0.074 -0.02,-0.133 -0.031,-0.172 -0.012,-0.043 -0.036,-0.07 -0.059,-0.086 -0.027,-0.015 -0.059,-0.023 -0.09,-0.023 -0.039,0 -0.097,0.023 -0.18,0.07 -0.082,0.039 -0.179,0.09 -0.3,0.137 -0.121,0.054 -0.262,0.101 -0.418,0.144 -0.157,0.047 -0.336,0.067 -0.539,0.067 -0.145,0 -0.27,-0.012 -0.375,-0.043 -0.106,-0.028 -0.196,-0.071 -0.262,-0.125 -0.066,-0.055 -0.117,-0.121 -0.152,-0.196 -0.032,-0.074 -0.051,-0.152 -0.051,-0.238 0,-0.129 0.039,-0.242 0.121,-0.332 0.082,-0.086 0.184,-0.164 0.32,-0.234 0.129,-0.067 0.278,-0.129 0.446,-0.188 0.164,-0.058 0.335,-0.125 0.507,-0.191 0.168,-0.074 0.34,-0.153 0.504,-0.25 0.168,-0.09 0.317,-0.203 0.446,-0.34 0.136,-0.133 0.238,-0.297 0.32,-0.484 0.082,-0.188 0.121,-0.411 0.121,-0.668 z"
         style="fill:#b2b4b9;fill-opacity:1;fill-rule:nonzero;stroke:none"
         transform="matrix(1.3333333,0,0,-1.3333333,813.70003,1122.5212)" />
      <path
         id="path58"
         d="m 196.18,391.098 c 0,-0.039 -0.012,-0.074 -0.039,-0.109 -0.024,-0.036 -0.067,-0.063 -0.125,-0.086 -0.059,-0.024 -0.141,-0.039 -0.243,-0.055 -0.097,-0.012 -0.23,-0.02 -0.386,-0.02 -0.157,0 -0.285,0.008 -0.387,0.02 -0.098,0.016 -0.184,0.031 -0.242,0.055 -0.063,0.023 -0.102,0.05 -0.125,0.086 -0.028,0.035 -0.035,0.07 -0.035,0.109 v 2.691 c -0.157,-0.14 -0.301,-0.261 -0.446,-0.363 -0.144,-0.101 -0.289,-0.187 -0.433,-0.258 -0.141,-0.062 -0.289,-0.109 -0.442,-0.136 -0.156,-0.032 -0.316,-0.047 -0.48,-0.047 -0.418,0 -0.77,0.082 -1.063,0.254 -0.293,0.164 -0.527,0.39 -0.711,0.671 -0.187,0.286 -0.32,0.618 -0.406,0.993 -0.082,0.379 -0.125,0.777 -0.125,1.195 0,0.504 0.055,0.957 0.168,1.355 0.106,0.407 0.266,0.747 0.481,1.032 0.211,0.281 0.468,0.5 0.777,0.656 0.312,0.144 0.664,0.223 1.074,0.223 0.153,0 0.305,-0.016 0.449,-0.043 0.145,-0.036 0.289,-0.09 0.43,-0.168 0.145,-0.078 0.293,-0.18 0.445,-0.305 0.161,-0.125 0.329,-0.277 0.512,-0.457 v 0.613 c 0,0.039 0.016,0.078 0.039,0.113 0.02,0.032 0.055,0.055 0.11,0.075 0.054,0.023 0.121,0.039 0.207,0.05 0.086,0.008 0.195,0.016 0.332,0.016 0.125,0 0.234,-0.008 0.32,-0.016 0.086,-0.015 0.152,-0.027 0.207,-0.05 0.047,-0.024 0.086,-0.043 0.105,-0.075 0.02,-0.035 0.032,-0.074 0.032,-0.113 z m -1.582,6.027 c -0.231,0.289 -0.45,0.508 -0.657,0.66 -0.211,0.157 -0.433,0.231 -0.66,0.231 -0.207,0 -0.383,-0.055 -0.535,-0.156 -0.148,-0.106 -0.269,-0.243 -0.359,-0.418 -0.094,-0.172 -0.164,-0.364 -0.207,-0.578 -0.039,-0.211 -0.063,-0.434 -0.063,-0.657 0,-0.238 0.016,-0.468 0.055,-0.699 0.039,-0.223 0.101,-0.422 0.187,-0.594 0.086,-0.175 0.204,-0.316 0.348,-0.418 0.141,-0.109 0.32,-0.16 0.543,-0.16 0.109,0 0.219,0.016 0.32,0.047 0.106,0.031 0.207,0.086 0.317,0.156 0.109,0.071 0.218,0.168 0.332,0.286 0.117,0.109 0.242,0.253 0.379,0.425 z"
         style="fill:#b2b4b9;fill-opacity:1;fill-rule:nonzero;stroke:none"
         transform="matrix(1.3333333,0,0,-1.3333333,813.70003,1122.5212)" />
      <path
         id="path59"
         d="m 203.477,393.344 c 0,-0.039 -0.016,-0.074 -0.032,-0.105 -0.023,-0.036 -0.058,-0.059 -0.113,-0.082 -0.055,-0.024 -0.121,-0.036 -0.211,-0.051 -0.086,-0.008 -0.195,-0.012 -0.324,-0.012 -0.141,0 -0.254,0.004 -0.34,0.012 -0.086,0.015 -0.152,0.027 -0.207,0.051 -0.051,0.023 -0.086,0.043 -0.109,0.082 -0.016,0.031 -0.032,0.066 -0.032,0.105 V 394 c -0.308,-0.34 -0.629,-0.593 -0.953,-0.761 -0.32,-0.168 -0.66,-0.254 -1.004,-0.254 -0.39,0 -0.714,0.062 -0.98,0.191 -0.266,0.125 -0.481,0.301 -0.641,0.52 -0.164,0.218 -0.281,0.476 -0.351,0.761 -0.067,0.293 -0.102,0.653 -0.102,1.086 v 3.461 c 0,0.039 0.012,0.078 0.035,0.113 0.024,0.032 0.063,0.055 0.125,0.075 0.063,0.023 0.145,0.035 0.246,0.05 0.106,0.008 0.235,0.012 0.387,0.012 0.152,0 0.285,-0.004 0.387,-0.012 0.097,-0.015 0.18,-0.027 0.242,-0.05 0.063,-0.024 0.105,-0.043 0.129,-0.075 0.027,-0.035 0.043,-0.074 0.043,-0.113 v -3.199 c 0,-0.297 0.016,-0.52 0.055,-0.676 0.039,-0.16 0.097,-0.293 0.171,-0.406 0.079,-0.109 0.18,-0.195 0.297,-0.258 0.121,-0.058 0.266,-0.09 0.422,-0.09 0.207,0 0.41,0.071 0.617,0.219 0.204,0.148 0.422,0.363 0.657,0.645 v 3.765 c 0,0.039 0.007,0.078 0.035,0.113 0.023,0.032 0.062,0.051 0.125,0.075 0.058,0.023 0.144,0.035 0.242,0.05 0.105,0.008 0.23,0.012 0.387,0.012 0.156,0 0.289,-0.004 0.386,-0.012 0.102,-0.015 0.184,-0.027 0.243,-0.05 0.058,-0.024 0.105,-0.043 0.125,-0.075 0.027,-0.035 0.043,-0.074 0.043,-0.113 z"
         style="fill:#b2b4b9;fill-opacity:1;fill-rule:nonzero;stroke:none"
         transform="matrix(1.3333333,0,0,-1.3333333,813.70003,1122.5212)" />
      <path
         id="path60"
         d="m 210.227,393.328 c 0,-0.058 -0.024,-0.109 -0.063,-0.14 -0.047,-0.035 -0.113,-0.059 -0.203,-0.071 -0.09,-0.019 -0.227,-0.023 -0.398,-0.023 -0.196,0 -0.333,0.004 -0.418,0.023 -0.086,0.012 -0.149,0.036 -0.184,0.071 -0.039,0.031 -0.055,0.082 -0.055,0.14 v 0.45 c -0.234,-0.25 -0.5,-0.446 -0.797,-0.586 -0.296,-0.137 -0.629,-0.207 -0.992,-0.207 -0.301,0 -0.574,0.039 -0.824,0.117 -0.254,0.078 -0.473,0.195 -0.656,0.351 -0.184,0.153 -0.328,0.344 -0.43,0.571 -0.102,0.23 -0.152,0.492 -0.152,0.801 0,0.332 0.062,0.613 0.195,0.859 0.129,0.242 0.324,0.441 0.578,0.601 0.258,0.161 0.57,0.278 0.953,0.352 0.383,0.078 0.821,0.117 1.324,0.117 h 0.555 v 0.34 c 0,0.176 -0.019,0.336 -0.055,0.469 -0.035,0.129 -0.093,0.242 -0.175,0.332 -0.086,0.09 -0.196,0.152 -0.332,0.199 -0.137,0.039 -0.305,0.063 -0.512,0.063 -0.266,0 -0.504,-0.032 -0.711,-0.09 -0.211,-0.059 -0.395,-0.125 -0.559,-0.2 -0.16,-0.07 -0.293,-0.136 -0.402,-0.195 -0.109,-0.058 -0.191,-0.086 -0.262,-0.086 -0.047,0 -0.089,0.012 -0.125,0.039 -0.035,0.032 -0.062,0.075 -0.089,0.129 -0.024,0.055 -0.04,0.121 -0.055,0.203 -0.008,0.082 -0.016,0.168 -0.016,0.266 0,0.129 0.012,0.234 0.031,0.309 0.024,0.078 0.063,0.148 0.122,0.207 0.058,0.062 0.16,0.132 0.308,0.203 0.149,0.078 0.324,0.144 0.524,0.207 0.195,0.062 0.414,0.117 0.648,0.156 0.234,0.039 0.477,0.059 0.73,0.059 0.438,0 0.821,-0.039 1.133,-0.129 0.317,-0.086 0.578,-0.223 0.778,-0.403 0.203,-0.179 0.351,-0.406 0.445,-0.691 0.09,-0.281 0.141,-0.617 0.141,-1.008 z m -1.567,2.418 h -0.609 c -0.258,0 -0.481,-0.015 -0.66,-0.05 -0.184,-0.043 -0.332,-0.094 -0.446,-0.172 -0.113,-0.078 -0.195,-0.172 -0.25,-0.278 -0.054,-0.109 -0.082,-0.23 -0.082,-0.371 0,-0.238 0.078,-0.425 0.231,-0.558 0.148,-0.137 0.355,-0.203 0.625,-0.203 0.219,0 0.426,0.058 0.613,0.171 0.191,0.118 0.383,0.282 0.578,0.5 z"
         style="fill:#b2b4b9;fill-opacity:1;fill-rule:nonzero;stroke:none"
         transform="matrix(1.3333333,0,0,-1.3333333,813.70003,1122.5212)" />
      <path
         id="path61"
         d="m 215.773,398.481 c 0,-0.156 -0.003,-0.281 -0.015,-0.379 -0.004,-0.094 -0.016,-0.172 -0.035,-0.231 -0.02,-0.05 -0.039,-0.089 -0.067,-0.109 -0.027,-0.023 -0.062,-0.031 -0.105,-0.031 -0.035,0 -0.071,0.008 -0.117,0.019 -0.039,0.016 -0.086,0.032 -0.137,0.051 -0.055,0.016 -0.113,0.031 -0.176,0.047 -0.062,0.012 -0.133,0.019 -0.211,0.019 -0.09,0 -0.176,-0.015 -0.265,-0.05 -0.09,-0.039 -0.18,-0.09 -0.274,-0.168 -0.098,-0.074 -0.199,-0.18 -0.301,-0.305 -0.101,-0.125 -0.215,-0.285 -0.332,-0.473 v -3.523 c 0,-0.043 -0.015,-0.078 -0.035,-0.109 -0.027,-0.036 -0.074,-0.059 -0.133,-0.082 -0.062,-0.024 -0.14,-0.036 -0.246,-0.047 -0.097,-0.012 -0.23,-0.016 -0.386,-0.016 -0.157,0 -0.282,0.004 -0.387,0.016 -0.102,0.011 -0.184,0.023 -0.242,0.047 -0.063,0.023 -0.106,0.046 -0.129,0.082 -0.028,0.031 -0.039,0.066 -0.039,0.109 v 5.656 c 0,0.043 0.011,0.078 0.031,0.113 0.019,0.032 0.058,0.055 0.117,0.079 0.051,0.019 0.125,0.035 0.211,0.046 0.082,0.012 0.191,0.016 0.324,0.016 0.137,0 0.25,-0.004 0.34,-0.016 0.086,-0.011 0.156,-0.027 0.199,-0.046 0.051,-0.024 0.086,-0.047 0.11,-0.079 0.019,-0.035 0.031,-0.07 0.031,-0.113 v -0.703 c 0.148,0.211 0.289,0.387 0.418,0.524 0.129,0.136 0.258,0.242 0.371,0.324 0.121,0.082 0.238,0.14 0.355,0.172 0.122,0.031 0.239,0.043 0.356,0.043 0.059,0 0.117,0 0.18,-0.008 0.062,-0.004 0.129,-0.02 0.199,-0.031 0.066,-0.016 0.125,-0.032 0.176,-0.051 0.05,-0.02 0.089,-0.039 0.109,-0.063 0.023,-0.019 0.043,-0.039 0.051,-0.066 0.011,-0.028 0.023,-0.063 0.031,-0.106 0.008,-0.043 0.012,-0.109 0.02,-0.199 0.003,-0.09 0.003,-0.207 0.003,-0.359 z"
         style="fill:#b2b4b9;fill-opacity:1;fill-rule:nonzero;stroke:none"
         transform="matrix(1.3333333,0,0,-1.3333333,813.70003,1122.5212)" />
      <path
         id="path62"
         d="m 222.164,396.34 c 0,-0.195 -0.047,-0.34 -0.129,-0.43 -0.09,-0.093 -0.207,-0.14 -0.359,-0.14 h -3.446 c 0,-0.242 0.032,-0.461 0.086,-0.656 0.055,-0.196 0.145,-0.364 0.274,-0.5 0.125,-0.141 0.285,-0.247 0.48,-0.317 0.196,-0.07 0.434,-0.109 0.707,-0.109 0.282,0 0.528,0.023 0.739,0.058 0.211,0.043 0.39,0.086 0.547,0.137 0.152,0.051 0.285,0.094 0.382,0.133 0.102,0.043 0.184,0.059 0.246,0.059 0.039,0 0.075,-0.004 0.094,-0.024 0.028,-0.012 0.051,-0.039 0.07,-0.074 0.012,-0.039 0.024,-0.094 0.032,-0.16 0.008,-0.075 0.008,-0.16 0.008,-0.266 0,-0.094 0,-0.172 -0.004,-0.238 -0.004,-0.071 -0.012,-0.121 -0.02,-0.168 -0.008,-0.047 -0.023,-0.086 -0.039,-0.117 -0.016,-0.036 -0.035,-0.063 -0.066,-0.094 -0.028,-0.031 -0.102,-0.07 -0.227,-0.121 -0.121,-0.051 -0.277,-0.098 -0.469,-0.149 -0.191,-0.047 -0.406,-0.089 -0.652,-0.125 -0.246,-0.035 -0.508,-0.054 -0.789,-0.054 -0.5,0 -0.941,0.062 -1.32,0.187 -0.375,0.129 -0.696,0.32 -0.946,0.582 -0.258,0.254 -0.445,0.582 -0.57,0.973 -0.121,0.394 -0.184,0.855 -0.184,1.383 0,0.504 0.063,0.957 0.196,1.363 0.133,0.402 0.32,0.746 0.57,1.027 0.246,0.278 0.555,0.496 0.906,0.645 0.36,0.144 0.762,0.219 1.211,0.219 0.477,0 0.879,-0.067 1.215,-0.207 0.34,-0.141 0.613,-0.332 0.828,-0.579 0.215,-0.253 0.371,-0.543 0.477,-0.882 0.097,-0.336 0.152,-0.704 0.152,-1.102 z m -1.551,0.453 c 0.016,0.449 -0.074,0.805 -0.269,1.063 -0.192,0.254 -0.489,0.379 -0.887,0.379 -0.203,0 -0.383,-0.035 -0.531,-0.11 -0.153,-0.078 -0.274,-0.179 -0.375,-0.312 -0.102,-0.129 -0.18,-0.281 -0.227,-0.457 -0.054,-0.176 -0.086,-0.36 -0.094,-0.563 z"
         style="fill:#b2b4b9;fill-opacity:1;fill-rule:nonzero;stroke:none"
         transform="matrix(1.3333333,0,0,-1.3333333,813.70003,1122.5212)" />
    </g>
  </g>
</svg>
