<?xml version="1.0" encoding="UTF-8" standalone="no"?>
<!-- Created with Inkscape (http://www.inkscape.org/) -->

<svg
   width="51.91901mm"
   height="60.841816mm"
   viewBox="0 0 51.91901 60.841816"
   version="1.1"
   id="svg1"
   xmlns="http://www.w3.org/2000/svg"
   xmlns:svg="http://www.w3.org/2000/svg">
  <defs
     id="defs1" />
  <g
     id="layer1"
     transform="translate(-87.841644,-105.03958)">
    <g
       id="g2415"
       transform="matrix(0.26458333,0,0,0.26458333,-240.96171,4.4139815)">
      <path
         id="path63"
         d="m 468.938,554.364 c 0,1.261 -1.028,2.289 -2.286,2.289 H 324.055 c -1.262,0 -2.289,-1.028 -2.289,-2.289 v -142.59 c 0,-1.27 1.027,-2.293 2.289,-2.293 h 105.929 c 1.079,0.011 1.461,0.535 1.461,1.215 0,0.683 -0.382,1.257 -1.461,1.265 H 324.238 V 554.18 H 466.461 V 419.227 h 0.027 c -0.015,-0.106 -0.027,-0.203 -0.027,-0.309 -0.008,-1.09 0.504,-1.672 1.18,-1.676 0.683,-0.007 1.285,0.571 1.297,1.661 0,0.113 -0.012,0.214 -0.02,0.324 h 0.02 z"
         style="fill:#6fa4d7;fill-opacity:1;fill-rule:nonzero;stroke:none"
         transform="matrix(1.3333333,0,0,-1.3333333,813.70003,1122.5212)" />
      <path
         id="path64"
         d="m 468.938,389.266 c 0,-2.805 -2.274,-5.078 -5.083,-5.078 h -17.609 c -2.805,0 -5.082,2.273 -5.082,5.078 v 17.617 c 0,2.805 2.277,5.078 5.082,5.078 h 17.609 c 2.809,0 5.083,-2.273 5.083,-5.078 z"
         style="fill:#6fa4d7;fill-opacity:1;fill-rule:nonzero;stroke:none"
         transform="matrix(1.3333333,0,0,-1.3333333,813.70003,1122.5212)" />
      <path
         id="path65"
         d="m 360.035,398.7 c 0,-0.458 -0.07,-0.864 -0.215,-1.215 -0.144,-0.36 -0.355,-0.657 -0.629,-0.899 -0.273,-0.242 -0.609,-0.429 -1.007,-0.554 -0.403,-0.125 -0.868,-0.188 -1.411,-0.188 h -0.679 v -2.617 c 0,-0.043 -0.016,-0.078 -0.043,-0.113 -0.028,-0.032 -0.074,-0.059 -0.137,-0.082 -0.062,-0.02 -0.148,-0.036 -0.254,-0.047 -0.105,-0.016 -0.238,-0.024 -0.406,-0.024 -0.16,0 -0.293,0.008 -0.402,0.024 -0.106,0.011 -0.192,0.027 -0.254,0.047 -0.063,0.023 -0.11,0.05 -0.133,0.082 -0.027,0.035 -0.035,0.07 -0.035,0.113 v 7.371 c 0,0.195 0.05,0.344 0.152,0.441 0.102,0.098 0.238,0.149 0.406,0.149 h 1.934 c 0.191,0 0.375,-0.004 0.555,-0.02 0.171,-0.015 0.378,-0.047 0.628,-0.097 0.243,-0.047 0.493,-0.137 0.743,-0.27 0.25,-0.125 0.468,-0.293 0.64,-0.492 0.18,-0.203 0.317,-0.438 0.407,-0.707 0.093,-0.266 0.14,-0.567 0.14,-0.902 z m -1.738,-0.118 c 0,0.289 -0.055,0.528 -0.156,0.707 -0.102,0.188 -0.223,0.325 -0.371,0.414 -0.153,0.086 -0.305,0.145 -0.465,0.168 -0.164,0.024 -0.332,0.036 -0.504,0.036 h -0.707 v -2.782 h 0.742 c 0.266,0 0.488,0.039 0.668,0.114 0.18,0.066 0.328,0.168 0.441,0.296 0.114,0.129 0.203,0.286 0.262,0.461 0.055,0.18 0.09,0.375 0.09,0.586 z"
         style="fill:#6fa4d7;fill-opacity:1;fill-rule:nonzero;stroke:none"
         transform="matrix(1.3333333,0,0,-1.3333333,813.70003,1122.5212)" />
      <path
         id="path66"
         d="m 367.477,393.621 c 0.05,-0.152 0.082,-0.273 0.093,-0.359 0.012,-0.094 -0.004,-0.156 -0.047,-0.203 -0.05,-0.043 -0.132,-0.07 -0.25,-0.078 -0.117,-0.012 -0.281,-0.02 -0.488,-0.02 -0.211,0 -0.383,0.004 -0.504,0.008 -0.117,0.012 -0.211,0.023 -0.273,0.043 -0.063,0.016 -0.106,0.043 -0.133,0.074 -0.027,0.039 -0.047,0.078 -0.062,0.137 l -0.551,1.644 h -3.078 l -0.52,-1.601 c -0.016,-0.059 -0.035,-0.106 -0.062,-0.149 -0.032,-0.039 -0.075,-0.07 -0.133,-0.097 -0.063,-0.02 -0.149,-0.035 -0.262,-0.047 -0.113,-0.008 -0.262,-0.012 -0.437,-0.012 -0.196,0 -0.348,0.008 -0.457,0.024 -0.11,0.011 -0.184,0.039 -0.227,0.09 -0.043,0.046 -0.059,0.117 -0.043,0.203 0.008,0.089 0.043,0.211 0.09,0.359 l 2.527,7.262 c 0.024,0.07 0.055,0.133 0.09,0.176 0.035,0.046 0.09,0.078 0.16,0.101 0.074,0.024 0.176,0.035 0.309,0.043 0.129,0.008 0.304,0.012 0.515,0.012 0.25,0 0.45,-0.004 0.594,-0.012 0.152,-0.008 0.266,-0.019 0.348,-0.043 0.082,-0.023 0.14,-0.059 0.179,-0.105 0.032,-0.047 0.063,-0.11 0.09,-0.192 z m -3.758,6.004 h -0.008 l -1.156,-3.476 h 2.32 z"
         style="fill:#6fa4d7;fill-opacity:1;fill-rule:nonzero;stroke:none"
         transform="matrix(1.3333333,0,0,-1.3333333,813.70003,1122.5212)" />
      <path
         id="path67"
         d="m 371.199,396.106 v -2.879 c 0,-0.043 -0.011,-0.078 -0.043,-0.113 -0.023,-0.036 -0.07,-0.059 -0.133,-0.082 -0.062,-0.02 -0.148,-0.036 -0.257,-0.047 -0.11,-0.016 -0.243,-0.02 -0.403,-0.02 -0.164,0 -0.297,0.004 -0.402,0.02 -0.106,0.011 -0.191,0.027 -0.258,0.047 -0.066,0.023 -0.109,0.05 -0.137,0.082 -0.023,0.035 -0.039,0.07 -0.039,0.113 v 2.879 l -2.238,4.465 c -0.082,0.16 -0.129,0.277 -0.156,0.363 -0.024,0.086 -0.012,0.152 0.039,0.195 0.047,0.047 0.141,0.074 0.269,0.082 0.129,0.012 0.309,0.02 0.543,0.02 0.196,0 0.352,-0.004 0.465,-0.016 0.117,-0.008 0.211,-0.027 0.278,-0.047 0.066,-0.023 0.117,-0.051 0.144,-0.093 0.035,-0.036 0.067,-0.086 0.094,-0.145 l 0.91,-2.012 c 0.09,-0.195 0.18,-0.398 0.266,-0.613 0.086,-0.215 0.175,-0.441 0.261,-0.676 h 0.012 c 0.078,0.227 0.164,0.449 0.246,0.664 0.086,0.211 0.168,0.422 0.25,0.614 l 0.899,2 c 0.019,0.066 0.046,0.117 0.078,0.16 0.031,0.039 0.078,0.07 0.144,0.097 0.063,0.024 0.149,0.043 0.258,0.051 0.109,0.012 0.254,0.016 0.438,0.016 0.238,0 0.429,-0.008 0.558,-0.02 0.133,-0.008 0.223,-0.035 0.274,-0.082 0.046,-0.043 0.058,-0.109 0.035,-0.199 -0.028,-0.086 -0.074,-0.207 -0.153,-0.359 z"
         style="fill:#6fa4d7;fill-opacity:1;fill-rule:nonzero;stroke:none"
         transform="matrix(1.3333333,0,0,-1.3333333,813.70003,1122.5212)" />
      <path
         id="path68"
         d="m 383.469,396.117 c 0,-0.503 -0.055,-0.957 -0.164,-1.359 -0.11,-0.398 -0.266,-0.738 -0.477,-1.023 -0.207,-0.282 -0.461,-0.496 -0.762,-0.653 -0.3,-0.148 -0.644,-0.226 -1.027,-0.226 -0.191,0 -0.367,0.019 -0.531,0.054 -0.164,0.032 -0.32,0.09 -0.473,0.172 -0.148,0.082 -0.297,0.184 -0.445,0.305 -0.145,0.121 -0.293,0.27 -0.445,0.441 v -0.613 c 0,-0.047 -0.012,-0.086 -0.032,-0.113 -0.027,-0.031 -0.062,-0.059 -0.117,-0.082 -0.051,-0.024 -0.121,-0.035 -0.211,-0.047 -0.09,-0.008 -0.199,-0.008 -0.324,-0.008 -0.129,0 -0.238,0 -0.324,0.008 -0.086,0.012 -0.157,0.023 -0.211,0.047 -0.051,0.023 -0.086,0.051 -0.11,0.082 -0.019,0.027 -0.031,0.066 -0.031,0.113 v 8.324 c 0,0.039 0.012,0.082 0.039,0.114 0.028,0.031 0.071,0.062 0.129,0.086 0.063,0.023 0.141,0.039 0.242,0.054 0.106,0.012 0.231,0.016 0.387,0.016 0.156,0 0.285,-0.004 0.387,-0.016 0.101,-0.015 0.183,-0.031 0.242,-0.054 0.062,-0.024 0.109,-0.055 0.129,-0.086 0.027,-0.032 0.039,-0.075 0.039,-0.114 v -3.121 c 0.144,0.145 0.289,0.266 0.434,0.367 0.14,0.102 0.285,0.184 0.429,0.25 0.141,0.067 0.293,0.114 0.442,0.141 0.152,0.031 0.312,0.047 0.48,0.047 0.418,0 0.774,-0.082 1.066,-0.25 0.29,-0.168 0.528,-0.391 0.711,-0.676 0.18,-0.281 0.313,-0.609 0.403,-0.992 0.086,-0.375 0.125,-0.77 0.125,-1.188 z M 381.816,396 c 0,0.239 -0.019,0.477 -0.05,0.692 -0.039,0.23 -0.102,0.429 -0.192,0.601 -0.086,0.172 -0.199,0.309 -0.344,0.414 -0.14,0.102 -0.316,0.153 -0.535,0.153 -0.101,0 -0.207,-0.012 -0.308,-0.043 -0.102,-0.032 -0.207,-0.078 -0.313,-0.153 -0.109,-0.066 -0.219,-0.164 -0.332,-0.281 -0.117,-0.109 -0.238,-0.25 -0.363,-0.422 v -1.871 c 0.226,-0.289 0.437,-0.504 0.644,-0.652 0.204,-0.153 0.418,-0.227 0.641,-0.227 0.207,0 0.383,0.051 0.527,0.156 0.141,0.106 0.262,0.243 0.356,0.415 0.098,0.168 0.164,0.359 0.207,0.574 0.043,0.211 0.062,0.429 0.062,0.644 z"
         style="fill:#b2b4b9;fill-opacity:1;fill-rule:nonzero;stroke:none"
         transform="matrix(1.3333333,0,0,-1.3333333,813.70003,1122.5212)" />
      <path
         id="path69"
         d="m 388.266,393 -0.684,-2 c -0.039,-0.105 -0.141,-0.179 -0.309,-0.226 -0.168,-0.047 -0.418,-0.071 -0.742,-0.071 -0.168,0 -0.304,0.004 -0.406,0.024 -0.098,0.012 -0.176,0.035 -0.23,0.074 -0.047,0.031 -0.075,0.07 -0.079,0.125 -0.003,0.051 0.008,0.109 0.039,0.184 l 0.75,1.89 c -0.054,0.024 -0.101,0.067 -0.144,0.117 -0.047,0.051 -0.078,0.106 -0.102,0.165 l -1.941,5.191 c -0.059,0.148 -0.082,0.266 -0.082,0.34 0,0.078 0.023,0.14 0.074,0.183 0.051,0.043 0.137,0.075 0.254,0.094 0.121,0.02 0.281,0.024 0.481,0.024 0.183,0 0.324,0 0.429,-0.008 0.106,-0.008 0.192,-0.024 0.246,-0.047 0.059,-0.027 0.106,-0.063 0.137,-0.117 0.027,-0.055 0.059,-0.129 0.086,-0.227 l 1.332,-3.777 h 0.016 l 1.214,3.851 c 0.028,0.11 0.059,0.188 0.098,0.219 0.039,0.035 0.11,0.063 0.199,0.082 0.094,0.02 0.258,0.024 0.489,0.024 0.183,0 0.332,-0.008 0.453,-0.024 0.121,-0.019 0.211,-0.051 0.269,-0.094 0.055,-0.046 0.082,-0.109 0.082,-0.191 0,-0.078 -0.015,-0.168 -0.05,-0.273 z"
         style="fill:#b2b4b9;fill-opacity:1;fill-rule:nonzero;stroke:none"
         transform="matrix(1.3333333,0,0,-1.3333333,813.70003,1122.5212)" />
      <path
         id="path70"
         d="m 398.684,394.813 c 0,-0.321 -0.059,-0.61 -0.18,-0.848 -0.121,-0.246 -0.289,-0.449 -0.508,-0.617 -0.219,-0.164 -0.476,-0.289 -0.781,-0.367 -0.297,-0.082 -0.625,-0.125 -0.973,-0.125 -0.211,0 -0.414,0.019 -0.605,0.047 -0.192,0.031 -0.364,0.07 -0.516,0.121 -0.152,0.047 -0.277,0.097 -0.379,0.144 -0.101,0.055 -0.176,0.102 -0.222,0.145 -0.043,0.047 -0.082,0.117 -0.106,0.211 -0.027,0.093 -0.039,0.23 -0.039,0.418 0,0.121 0.004,0.222 0.012,0.297 0.008,0.07 0.019,0.128 0.039,0.175 0.015,0.043 0.039,0.075 0.062,0.09 0.028,0.016 0.059,0.024 0.098,0.024 0.043,0 0.113,-0.028 0.207,-0.078 0.09,-0.055 0.199,-0.114 0.336,-0.176 0.133,-0.063 0.293,-0.125 0.469,-0.18 0.179,-0.051 0.386,-0.082 0.613,-0.082 0.141,0 0.269,0.016 0.383,0.047 0.113,0.027 0.211,0.074 0.289,0.125 0.082,0.058 0.148,0.125 0.187,0.207 0.043,0.086 0.063,0.184 0.063,0.293 0,0.129 -0.039,0.234 -0.117,0.324 -0.078,0.09 -0.18,0.172 -0.309,0.242 -0.129,0.067 -0.273,0.129 -0.437,0.188 -0.165,0.062 -0.329,0.125 -0.5,0.195 -0.172,0.074 -0.336,0.156 -0.5,0.246 -0.161,0.098 -0.309,0.211 -0.434,0.344 -0.133,0.133 -0.234,0.297 -0.313,0.488 -0.078,0.188 -0.117,0.418 -0.117,0.68 0,0.273 0.055,0.519 0.16,0.746 0.106,0.227 0.258,0.418 0.454,0.582 0.199,0.156 0.437,0.285 0.726,0.371 0.281,0.086 0.606,0.133 0.957,0.133 0.176,0 0.352,-0.016 0.516,-0.039 0.168,-0.024 0.32,-0.059 0.453,-0.094 0.137,-0.039 0.25,-0.082 0.344,-0.121 0.093,-0.047 0.156,-0.082 0.195,-0.113 0.043,-0.039 0.07,-0.071 0.086,-0.102 0.019,-0.027 0.031,-0.066 0.039,-0.109 0.012,-0.047 0.016,-0.098 0.023,-0.168 0.004,-0.063 0.008,-0.145 0.008,-0.242 0,-0.114 -0.004,-0.207 -0.008,-0.278 -0.007,-0.074 -0.015,-0.129 -0.031,-0.175 -0.019,-0.036 -0.035,-0.067 -0.058,-0.082 -0.028,-0.012 -0.059,-0.02 -0.09,-0.02 -0.039,0 -0.098,0.02 -0.18,0.062 -0.078,0.051 -0.18,0.09 -0.297,0.145 -0.121,0.051 -0.262,0.102 -0.418,0.141 -0.156,0.047 -0.34,0.066 -0.543,0.066 -0.144,0 -0.269,-0.012 -0.375,-0.043 -0.105,-0.027 -0.191,-0.074 -0.258,-0.129 -0.066,-0.055 -0.117,-0.117 -0.152,-0.191 -0.035,-0.071 -0.051,-0.153 -0.051,-0.235 0,-0.132 0.039,-0.242 0.121,-0.332 0.082,-0.089 0.184,-0.168 0.317,-0.234 0.129,-0.066 0.281,-0.133 0.445,-0.191 0.164,-0.055 0.34,-0.122 0.508,-0.192 0.168,-0.066 0.336,-0.148 0.508,-0.242 0.164,-0.094 0.316,-0.207 0.441,-0.344 0.133,-0.136 0.238,-0.293 0.32,-0.484 0.079,-0.188 0.118,-0.41 0.118,-0.664 z"
         style="fill:#b2b4b9;fill-opacity:1;fill-rule:nonzero;stroke:none"
         transform="matrix(1.3333333,0,0,-1.3333333,813.70003,1122.5212)" />
      <path
         id="path71"
         d="m 405.559,390.977 c 0,-0.047 -0.012,-0.082 -0.039,-0.117 -0.02,-0.032 -0.067,-0.059 -0.125,-0.082 -0.059,-0.024 -0.137,-0.043 -0.239,-0.055 -0.101,-0.016 -0.23,-0.02 -0.386,-0.02 -0.157,0 -0.286,0.004 -0.387,0.02 -0.102,0.012 -0.184,0.031 -0.246,0.055 -0.059,0.023 -0.102,0.05 -0.125,0.082 -0.024,0.035 -0.035,0.07 -0.035,0.117 v 2.683 c -0.153,-0.14 -0.301,-0.257 -0.442,-0.363 -0.144,-0.105 -0.285,-0.191 -0.433,-0.254 -0.141,-0.07 -0.286,-0.113 -0.438,-0.144 -0.156,-0.028 -0.316,-0.043 -0.484,-0.043 -0.41,0 -0.766,0.082 -1.055,0.25 -0.293,0.164 -0.527,0.39 -0.711,0.672 -0.187,0.285 -0.32,0.613 -0.402,0.992 -0.086,0.375 -0.129,0.773 -0.129,1.191 0,0.504 0.055,0.953 0.164,1.356 0.113,0.402 0.269,0.742 0.48,1.023 0.211,0.281 0.473,0.5 0.782,0.656 0.308,0.149 0.664,0.227 1.066,0.227 0.156,0 0.309,-0.02 0.449,-0.047 0.145,-0.031 0.289,-0.09 0.43,-0.168 0.148,-0.074 0.293,-0.176 0.449,-0.301 0.152,-0.125 0.324,-0.277 0.508,-0.461 v 0.618 c 0,0.039 0.012,0.078 0.035,0.109 0.024,0.031 0.059,0.059 0.113,0.078 0.055,0.02 0.121,0.035 0.207,0.047 0.082,0.012 0.196,0.016 0.329,0.016 0.128,0 0.234,-0.004 0.32,-0.016 0.09,-0.012 0.152,-0.027 0.207,-0.047 0.051,-0.019 0.086,-0.047 0.109,-0.078 0.016,-0.031 0.028,-0.07 0.028,-0.109 z m -1.582,6.012 c -0.227,0.285 -0.446,0.507 -0.653,0.656 -0.211,0.152 -0.429,0.23 -0.656,0.23 -0.207,0 -0.387,-0.05 -0.535,-0.156 -0.153,-0.105 -0.274,-0.242 -0.36,-0.414 -0.089,-0.172 -0.16,-0.367 -0.203,-0.578 -0.047,-0.215 -0.066,-0.434 -0.066,-0.656 0,-0.235 0.019,-0.469 0.055,-0.696 0.035,-0.226 0.101,-0.425 0.187,-0.593 0.086,-0.176 0.203,-0.313 0.348,-0.418 0.14,-0.11 0.32,-0.164 0.543,-0.164 0.109,0 0.215,0.019 0.32,0.05 0.102,0.032 0.207,0.082 0.313,0.157 0.109,0.07 0.222,0.164 0.332,0.281 0.117,0.117 0.238,0.258 0.375,0.426 z"
         style="fill:#b2b4b9;fill-opacity:1;fill-rule:nonzero;stroke:none"
         transform="matrix(1.3333333,0,0,-1.3333333,813.70003,1122.5212)" />
      <path
         id="path72"
         d="m 412.84,393.215 c 0,-0.039 -0.012,-0.078 -0.031,-0.109 -0.02,-0.031 -0.059,-0.059 -0.11,-0.082 -0.054,-0.02 -0.125,-0.035 -0.211,-0.043 -0.086,-0.012 -0.195,-0.02 -0.328,-0.02 -0.137,0 -0.25,0.008 -0.336,0.02 -0.086,0.008 -0.156,0.023 -0.203,0.043 -0.051,0.023 -0.09,0.051 -0.109,0.082 -0.024,0.031 -0.032,0.07 -0.032,0.109 v 0.652 c -0.312,-0.339 -0.632,-0.593 -0.953,-0.761 -0.324,-0.168 -0.66,-0.25 -1.004,-0.25 -0.386,0 -0.71,0.062 -0.976,0.191 -0.262,0.121 -0.477,0.301 -0.641,0.52 -0.16,0.215 -0.277,0.468 -0.347,0.761 -0.071,0.289 -0.106,0.649 -0.106,1.075 v 3.461 c 0,0.039 0.012,0.078 0.035,0.109 0.024,0.031 0.067,0.059 0.129,0.078 0.059,0.02 0.141,0.035 0.246,0.047 0.102,0.012 0.231,0.016 0.383,0.016 0.152,0 0.281,-0.004 0.387,-0.016 0.097,-0.012 0.18,-0.027 0.242,-0.047 0.063,-0.019 0.105,-0.047 0.129,-0.078 0.023,-0.031 0.039,-0.07 0.039,-0.109 v -3.192 c 0,-0.297 0.02,-0.523 0.055,-0.676 0.039,-0.156 0.097,-0.293 0.175,-0.406 0.079,-0.109 0.176,-0.195 0.297,-0.258 0.121,-0.058 0.262,-0.09 0.422,-0.09 0.203,0 0.406,0.071 0.61,0.223 0.207,0.145 0.421,0.363 0.656,0.645 v 3.754 c 0,0.039 0.012,0.078 0.035,0.109 0.023,0.031 0.066,0.059 0.125,0.078 0.062,0.02 0.141,0.035 0.246,0.047 0.102,0.012 0.227,0.016 0.387,0.016 0.152,0 0.285,-0.004 0.383,-0.016 0.101,-0.012 0.183,-0.027 0.242,-0.047 0.058,-0.019 0.101,-0.047 0.125,-0.078 0.027,-0.031 0.039,-0.07 0.039,-0.109 z"
         style="fill:#b2b4b9;fill-opacity:1;fill-rule:nonzero;stroke:none"
         transform="matrix(1.3333333,0,0,-1.3333333,813.70003,1122.5212)" />
      <path
         id="path73"
         d="m 419.578,393.196 c 0,-0.059 -0.023,-0.102 -0.066,-0.141 -0.043,-0.031 -0.11,-0.055 -0.199,-0.07 -0.09,-0.016 -0.223,-0.024 -0.403,-0.024 -0.187,0 -0.324,0.008 -0.41,0.024 -0.09,0.015 -0.152,0.039 -0.187,0.07 -0.036,0.039 -0.051,0.082 -0.051,0.141 v 0.449 c -0.235,-0.25 -0.5,-0.438 -0.797,-0.578 -0.297,-0.141 -0.629,-0.211 -0.988,-0.211 -0.301,0 -0.575,0.035 -0.829,0.113 -0.25,0.082 -0.468,0.195 -0.652,0.352 -0.183,0.152 -0.324,0.343 -0.426,0.574 -0.101,0.226 -0.152,0.492 -0.152,0.797 0,0.332 0.062,0.613 0.195,0.855 0.125,0.242 0.317,0.445 0.575,0.602 0.253,0.16 0.57,0.277 0.949,0.347 0.383,0.082 0.824,0.121 1.328,0.121 h 0.551 v 0.34 c 0,0.176 -0.02,0.332 -0.059,0.461 -0.035,0.137 -0.094,0.246 -0.176,0.336 -0.078,0.09 -0.191,0.156 -0.328,0.196 -0.137,0.042 -0.305,0.066 -0.512,0.066 -0.265,0 -0.5,-0.031 -0.711,-0.094 -0.207,-0.058 -0.394,-0.121 -0.55,-0.195 -0.164,-0.07 -0.297,-0.133 -0.407,-0.195 -0.105,-0.059 -0.191,-0.09 -0.261,-0.09 -0.047,0 -0.086,0.019 -0.125,0.047 -0.032,0.027 -0.063,0.07 -0.086,0.125 -0.024,0.054 -0.043,0.125 -0.055,0.203 -0.012,0.078 -0.019,0.172 -0.019,0.265 0,0.133 0.011,0.235 0.035,0.309 0.019,0.078 0.062,0.144 0.121,0.207 0.055,0.062 0.156,0.129 0.308,0.203 0.149,0.074 0.321,0.141 0.52,0.207 0.195,0.063 0.41,0.113 0.644,0.156 0.239,0.039 0.481,0.059 0.727,0.059 0.441,0 0.82,-0.047 1.137,-0.129 0.312,-0.086 0.574,-0.223 0.773,-0.398 0.203,-0.18 0.352,-0.414 0.446,-0.696 0.093,-0.281 0.14,-0.617 0.14,-1.004 z m -1.562,2.421 h -0.61 c -0.258,0 -0.48,-0.023 -0.66,-0.058 -0.18,-0.043 -0.328,-0.098 -0.441,-0.172 -0.117,-0.078 -0.2,-0.168 -0.25,-0.273 -0.055,-0.11 -0.078,-0.231 -0.078,-0.372 0,-0.238 0.07,-0.421 0.222,-0.558 0.153,-0.133 0.36,-0.203 0.625,-0.203 0.223,0 0.426,0.054 0.617,0.176 0.188,0.113 0.375,0.277 0.571,0.492 v 0.968 z"
         style="fill:#b2b4b9;fill-opacity:1;fill-rule:nonzero;stroke:none"
         transform="matrix(1.3333333,0,0,-1.3333333,813.70003,1122.5212)" />
      <path
         id="path74"
         d="m 425.117,398.336 c 0,-0.152 -0.004,-0.277 -0.015,-0.371 -0.004,-0.101 -0.02,-0.172 -0.036,-0.23 -0.019,-0.055 -0.039,-0.094 -0.066,-0.114 -0.031,-0.019 -0.066,-0.035 -0.105,-0.035 -0.036,0 -0.071,0.012 -0.114,0.024 -0.043,0.019 -0.09,0.031 -0.144,0.05 -0.051,0.016 -0.11,0.032 -0.172,0.051 -0.067,0.008 -0.133,0.016 -0.207,0.016 -0.09,0 -0.18,-0.016 -0.27,-0.051 -0.09,-0.035 -0.179,-0.094 -0.273,-0.172 -0.098,-0.07 -0.195,-0.176 -0.301,-0.297 -0.101,-0.129 -0.215,-0.285 -0.328,-0.468 v -3.524 c 0,-0.039 -0.016,-0.078 -0.039,-0.109 -0.024,-0.031 -0.07,-0.059 -0.133,-0.082 -0.059,-0.016 -0.141,-0.032 -0.242,-0.043 -0.098,-0.012 -0.231,-0.016 -0.383,-0.016 -0.156,0 -0.285,0.004 -0.387,0.016 -0.101,0.011 -0.183,0.027 -0.242,0.043 -0.066,0.023 -0.105,0.051 -0.133,0.082 -0.023,0.031 -0.039,0.07 -0.039,0.109 v 5.649 c 0,0.039 0.012,0.078 0.032,0.109 0.023,0.031 0.058,0.059 0.113,0.078 0.058,0.02 0.125,0.039 0.215,0.047 0.086,0.012 0.195,0.019 0.328,0.019 0.133,0 0.242,-0.007 0.332,-0.019 0.09,-0.008 0.16,-0.027 0.207,-0.047 0.047,-0.019 0.082,-0.047 0.105,-0.078 0.02,-0.031 0.032,-0.07 0.032,-0.109 v -0.704 c 0.148,0.211 0.285,0.387 0.418,0.524 0.128,0.133 0.253,0.242 0.371,0.324 0.117,0.082 0.238,0.137 0.355,0.168 0.117,0.027 0.234,0.047 0.352,0.047 0.058,0 0.117,-0.004 0.179,-0.008 0.063,-0.012 0.129,-0.019 0.196,-0.035 0.07,-0.012 0.125,-0.031 0.179,-0.047 0.047,-0.019 0.086,-0.043 0.11,-0.062 0.023,-0.02 0.039,-0.043 0.047,-0.067 0.011,-0.027 0.023,-0.062 0.031,-0.105 0.008,-0.043 0.015,-0.114 0.019,-0.199 0.004,-0.09 0.008,-0.208 0.008,-0.364 z"
         style="fill:#b2b4b9;fill-opacity:1;fill-rule:nonzero;stroke:none"
         transform="matrix(1.3333333,0,0,-1.3333333,813.70003,1122.5212)" />
      <path
         id="path75"
         d="m 431.488,396.203 c 0,-0.195 -0.043,-0.336 -0.129,-0.433 -0.089,-0.09 -0.207,-0.137 -0.359,-0.137 h -3.434 c 0,-0.238 0.024,-0.457 0.082,-0.656 0.059,-0.195 0.149,-0.36 0.274,-0.5 0.125,-0.137 0.285,-0.238 0.48,-0.313 0.196,-0.074 0.43,-0.105 0.707,-0.105 0.278,0 0.52,0.019 0.731,0.058 0.211,0.04 0.394,0.083 0.551,0.133 0.152,0.051 0.281,0.094 0.382,0.133 0.102,0.039 0.184,0.059 0.247,0.059 0.035,0 0.066,-0.004 0.093,-0.02 0.028,-0.012 0.047,-0.039 0.063,-0.082 0.019,-0.035 0.031,-0.09 0.035,-0.16 0.008,-0.07 0.012,-0.156 0.012,-0.262 0,-0.093 -0.004,-0.172 -0.004,-0.238 -0.008,-0.066 -0.012,-0.121 -0.024,-0.164 -0.007,-0.051 -0.019,-0.086 -0.039,-0.121 -0.015,-0.031 -0.035,-0.063 -0.062,-0.09 -0.028,-0.031 -0.106,-0.066 -0.227,-0.121 -0.121,-0.051 -0.277,-0.102 -0.469,-0.149 -0.191,-0.046 -0.406,-0.093 -0.652,-0.125 -0.242,-0.039 -0.504,-0.054 -0.785,-0.054 -0.5,0 -0.941,0.058 -1.316,0.191 -0.379,0.121 -0.696,0.317 -0.946,0.574 -0.254,0.258 -0.445,0.579 -0.566,0.973 -0.125,0.391 -0.192,0.856 -0.192,1.383 0,0.5 0.067,0.953 0.196,1.355 0.133,0.407 0.324,0.746 0.57,1.024 0.25,0.281 0.551,0.496 0.91,0.644 0.36,0.149 0.758,0.223 1.203,0.223 0.477,0 0.879,-0.074 1.215,-0.211 0.336,-0.141 0.613,-0.332 0.824,-0.578 0.219,-0.246 0.375,-0.543 0.477,-0.879 0.102,-0.336 0.152,-0.703 0.152,-1.098 z m -1.547,0.454 c 0.016,0.449 -0.074,0.804 -0.265,1.054 -0.192,0.258 -0.488,0.383 -0.891,0.383 -0.203,0 -0.375,-0.039 -0.527,-0.113 -0.149,-0.074 -0.278,-0.18 -0.375,-0.305 -0.098,-0.129 -0.172,-0.285 -0.227,-0.457 -0.054,-0.176 -0.082,-0.363 -0.09,-0.562 z"
         style="fill:#b2b4b9;fill-opacity:1;fill-rule:nonzero;stroke:none"
         transform="matrix(1.3333333,0,0,-1.3333333,813.70003,1122.5212)" />
      <path
         id="path76"
         d="m 463.422,404.805 -18.227,-2.641 c -0.738,-0.101 -1.242,-0.882 -1.113,-1.738 l 1.363,-9.422 c 0.125,-0.855 0.821,-1.457 1.563,-1.347 l 18.226,2.64 c 0.739,0.106 1.235,0.879 1.114,1.731 l -1.364,9.429 c -0.125,0.852 -0.824,1.453 -1.562,1.348 z m 1.359,-11.066 -17.898,-2.618 -1.391,9.493 17.899,2.621 z"
         style="fill:#ffffff;fill-opacity:1;fill-rule:nonzero;stroke:none"
         transform="matrix(1.3333333,0,0,-1.3333333,813.70003,1122.5212)" />
      <path
         id="path77"
         d="m 445.215,398.844 18.703,2.734 0.371,-2.507 -18.703,-2.739 z"
         style="fill:#ffffff;fill-opacity:1;fill-rule:nonzero;stroke:none"
         transform="matrix(1.3333333,0,0,-1.3333333,813.70003,1122.5212)" />
      <path
         id="path78"
         d="m 456.273,395.637 -8.668,-1.27 -0.113,0.77 8.668,1.266 z"
         style="fill:#ffffff;fill-opacity:1;fill-rule:nonzero;stroke:none"
         transform="matrix(1.3333333,0,0,-1.3333333,813.70003,1122.5212)" />
      <path
         id="path79"
         d="m 456.605,393.871 -8.671,-1.261 -0.114,0.769 8.672,1.266 z"
         style="fill:#ffffff;fill-opacity:1;fill-rule:nonzero;stroke:none"
         transform="matrix(1.3333333,0,0,-1.3333333,813.70003,1122.5212)" />
    </g>
  </g>
</svg>
